<?xml version="1.0" standalone="no"?>
<!DOCTYPE svg PUBLIC "-//W3C//DTD SVG 20010904//EN"
 "http://www.w3.org/TR/2001/REC-SVG-20010904/DTD/svg10.dtd">
<svg version="1.0" xmlns="http://www.w3.org/2000/svg"
 width="309.000000pt" height="309.000000pt" viewBox="0 0 309.000000 309.000000"
 preserveAspectRatio="xMidYMid meet">
<metadata>
Created by potrace 1.11, written by Peter Selinger 2001-2013
</metadata>
<g transform="translate(0.000000,309.000000) scale(0.100000,-0.100000)"
fill="#000000" stroke="none">
<path d="M2959 3000 c-14 -4 -255 -124 -535 -266 l-510 -258 -57 47 c-66 54
-175 108 -267 133 -97 27 -310 28 -426 4 -517 -112 -972 -530 -1088 -1000 -64
-262 -25 -591 100 -844 51 -103 96 -160 276 -346 163 -169 199 -221 252 -361
l23 -62 74 74 c78 77 126 157 139 231 10 50 -9 144 -43 218 l-25 55 25 25 c33
33 74 113 88 175 23 100 4 193 -61 291 -24 37 -44 68 -44 69 0 3 97 45 104 45
3 0 6 -17 6 -39 0 -63 34 -72 115 -30 55 29 92 61 150 131 48 57 57 62 197
122 281 121 439 217 565 341 126 125 168 229 116 287 -14 16 -14 24 6 83 11
36 21 74 21 83 0 25 16 38 230 192 526 379 661 484 679 529 15 34 1 70 -27 72
-9 1 -26 2 -37 4 -11 1 -32 -1 -46 -5z"/>
</g>
</svg>
