<?xml version="1.0" encoding="UTF-8" standalone="no"?>
<svg viewBox="0 0 405 144" version="1.1" xmlns="http://www.w3.org/2000/svg" xmlns:xlink="http://www.w3.org/1999/xlink" xmlns:sketch="http://www.bohemiancoding.com/sketch/ns">
    <!-- Generator: Sketch 3.5.1 (25234) - http://www.bohemiancoding.com/sketch -->
    <title>Artboard</title>
    <desc>Created with Sketch.</desc>
    <defs></defs>
    <g id="Page-1" stroke="none" stroke-width="1" fill="none" fill-rule="evenodd" sketch:type="MSPage">
        <g id="Artboard" sketch:type="MSArtboardGroup">
            <path d="M33.329,91.211 C28.872,93.203 20.169,97.764 20.955,102.692 C22.109,105.731 25.622,102.482 26.985,101.223 C29.816,98.602 32.019,94.88 33.329,91.211 L33.329,91.211 Z M60.067,80.309 C57.08,88.067 48.428,91.735 46.017,90.425 C44.811,89.797 46.121,87.332 46.174,85.656 C44.391,86.336 41.508,87.594 39.778,88.328 C43.972,91.473 46.121,96.871 46.121,102.009 C46.121,107.251 43.92,112.125 39.83,115.428 C47.118,126.121 43.395,135.4 33.434,142.529 L32.857,143 L32.647,142.266 C31.179,137.128 29.293,132.831 25.779,128.794 C24.049,126.75 22.004,124.916 20.064,123.08 C17.496,120.617 15.031,118.155 12.672,115.481 C2.815,104.996 -1.064,86.861 0.247,72.865 C0.875,65.684 3.078,58.764 6.433,52.317 C9.159,47.233 12.567,42.568 16.447,38.375 C25.15,29.096 36.632,21.758 48.848,18.14 C59.596,14.943 71.864,14.419 82.088,19.661 C83.714,20.5 86.231,22.02 87.593,23.173 C88.484,23.959 89.323,24.745 90.162,25.585 C90.215,25.636 90.319,25.741 90.424,25.846 L100.176,20.919 C101.54,20.185 102.85,19.871 104.317,20.133 C105.208,18.717 106.415,17.616 107.936,16.83 L115.905,12.48 C117.005,11.904 118.002,11.693 119.208,11.904 C120.099,10.541 121.357,9.545 122.825,8.81 L129.588,5.141 C130.323,4.827 131.319,4.617 132.158,4.722 C132.839,3.831 133.678,3.097 134.674,2.625 L139.183,0.319 C140.022,-0.153 141.176,-0.258 142.276,0.005 L146.523,1.315 L145.79,5.718 C145.579,6.819 145.265,7.395 144.479,8.13 L142.696,9.44 C141.91,10.017 141.018,10.383 140.074,10.436 C139.445,11.536 138.554,12.375 137.505,13.109 L131.423,17.355 L130.795,17.826 C129.904,18.456 128.907,18.822 127.858,18.875 C127.125,20.133 126.076,21.129 124.871,21.967 L118.945,26.16 L118.159,26.685 C116.9,27.576 115.433,27.838 113.912,27.733 C113.125,29.515 111.867,31.088 110.295,32.241 L102.168,38.112 C103.793,40.576 101.591,43.564 99.809,45.608 C105.262,47.495 100.438,55.514 98.026,58.345 C91.158,66.47 78.627,72.865 67.408,77.53 C64.419,78.737 62.689,79.313 60.067,80.309 L60.067,80.309 Z" id="Fill-1" fill="#10476F" sketch:type="MSShapeGroup"></path>
            <path d="M97.502,52.265 C100.542,48.438 98.446,46.184 96.296,48.387 C92.102,52.684 85.758,54.152 79.991,53.208 C71.602,51.793 71.183,50.535 72.65,49.278 C82.56,52.894 94.094,48.176 98.865,40.366 C100.91,37.378 93.99,35.02 89.899,29.515 C70.343,3.045 9.055,26.109 3.182,72.341 C1.4,86.233 5.28,101.642 14.821,112.441 C22.004,120.566 29.816,123.92 34.22,136.709 C42.767,129.319 41.403,121.036 35.164,113.75 C45.86,108.142 44.286,93.674 36.736,89.272 C33.277,102.166 20.694,111.706 17.757,102.533 C15.87,93.203 31.232,87.019 55.769,77.689 C76.374,69.982 89.638,63.639 97.502,52.265" id="Fill-4" fill="#2EAAE1" sketch:type="MSShapeGroup"></path>
            <path d="M97.502,52.265 C100.542,48.438 98.446,46.184 96.296,48.387 C92.679,52.055 87.226,53.68 82.298,53.418 C73.857,52.841 67.093,51.164 60.907,51.793 C48.743,53.051 36.842,60.756 30.498,67.257 C19.75,78.263 7.901,101.118 19.855,105.573 C18.963,104.996 18.229,104 17.757,102.533 C15.87,93.203 31.232,87.019 55.769,77.689 C76.374,69.982 89.638,63.639 97.502,52.265" id="Fill-5" fill="#FFFFFF" sketch:type="MSShapeGroup"></path>
            <path d="M44.811,70.297 C51.154,73.39 49.896,84.292 48.953,86.965 C60.96,83.61 57.394,65.789 62.951,60.337 C55.978,60.179 42.871,67.203 44.811,70.297" id="Fill-6" fill="#2EAAE1" sketch:type="MSShapeGroup"></path>
            <path d="M65.153,38.112 C66.831,37.221 68.928,37.85 69.872,39.527 C70.764,41.258 70.134,43.354 68.456,44.245 C66.726,45.188 64.628,44.507 63.686,42.83 C62.794,41.153 63.423,39.003 65.153,38.112" id="Fill-7" fill="#10476F" sketch:type="MSShapeGroup"></path>
            <path d="M15.923,46.132 C17.547,45.87 18.806,46.97 18.806,48.648 C18.754,50.325 17.443,51.951 15.817,52.212 C14.193,52.475 12.881,51.374 12.881,49.697 C12.935,48.019 14.297,46.394 15.923,46.132" id="Fill-8" fill="#138AC8" sketch:type="MSShapeGroup"></path>
            <path d="M25.674,35.386 C27.09,35.124 28.244,36.12 28.191,37.588 C28.191,39.108 26.985,40.471 25.569,40.733 C24.102,40.995 23.001,39.999 23.001,38.479 C23.053,37.011 24.206,35.596 25.674,35.386" id="Fill-9" fill="#138AC8" sketch:type="MSShapeGroup"></path>
            <path d="M55.245,21.129 C56.66,21.181 57.551,22.439 57.236,23.854 C56.869,25.323 55.401,26.423 53.934,26.318 C52.466,26.265 51.575,25.008 51.941,23.593 C52.308,22.125 53.776,21.024 55.245,21.129" id="Fill-10" fill="#138AC8" sketch:type="MSShapeGroup"></path>
            <path d="M64.262,19.609 C65.468,19.871 66.044,21.024 65.573,22.177 C65.101,23.33 63.737,24.012 62.532,23.803 C61.326,23.54 60.749,22.387 61.221,21.234 C61.746,20.08 63.109,19.399 64.262,19.609" id="Fill-11" fill="#138AC8" sketch:type="MSShapeGroup"></path>
            <path d="M25.779,42.096 C26.828,41.938 27.667,42.673 27.667,43.773 C27.667,44.874 26.776,45.923 25.727,46.079 C24.626,46.289 23.787,45.555 23.787,44.455 C23.839,43.354 24.678,42.305 25.779,42.096" id="Fill-12" fill="#138AC8" sketch:type="MSShapeGroup"></path>
            <path d="M10.523,54.729 C11.623,54.572 12.514,55.358 12.462,56.458 C12.462,57.612 11.519,58.713 10.418,58.922 C9.316,59.079 8.425,58.345 8.425,57.192 C8.478,56.039 9.369,54.939 10.523,54.729" id="Fill-13" fill="#138AC8" sketch:type="MSShapeGroup"></path>
            <path d="M136.405,7.186 C138.764,7.605 139.917,8.077 141.385,7.081 L143.011,5.927 C143.325,5.718 143.43,5.456 143.535,5.036 L144.06,2.521 L141.543,1.892 C141.228,1.787 140.861,1.681 140.546,1.892 L139.969,2.363 L136.405,7.186 L136.405,7.186 Z M129.379,15.31 L130.061,14.891 L131.477,13.58 L132.996,11.379 L134.779,6.923 C132.472,6.766 131.581,6.766 130.637,7.238 L128.96,8.391 L126.967,9.806 L125.185,15.73 C127.125,15.992 128.173,16.149 129.379,15.31 L129.379,15.31 Z M116.744,24.064 L117.478,23.54 L118.526,22.439 L122.458,15.992 L121.882,14.786 C120.099,14.366 118.526,13.791 117.058,14.577 L116.272,14.996 L114.961,15.887 L112.025,24.431 C113.807,24.903 115.485,24.903 116.744,24.064 L116.744,24.064 Z M98.603,35.596 L104.003,32.189 L107.306,22.859 C104.895,22.387 103.322,22.125 101.906,22.911 L101.54,23.121 L100.124,24.169 L97.03,27.209 L97.03,32.608 L98.603,35.596 L98.603,35.596 Z" id="Fill-14" fill="#138AC8" sketch:type="MSShapeGroup"></path>
            <path d="M128.225,10.331 C128.592,9.177 129.588,7.867 130.69,7.238 L128.855,8.235 L124.136,10.75 C121.987,11.904 121.2,13.056 120.675,14.734 L118.789,20.709 C118.369,22.177 118.107,22.963 117.163,23.75 L118.054,23.173 L123.455,19.399 C125.08,18.298 126.023,17.25 126.495,15.73 L128.225,10.331 L128.225,10.331 Z M129.746,15.101 C131.004,14.21 131.423,13.371 131.844,12.113 L133.259,7.553 C133.468,6.976 134.307,5.246 135.985,4.355 L140.546,1.892 C139.969,2.363 139.655,3.097 139.445,4.093 L138.501,7.71 C138.24,8.863 137.663,9.65 136.194,10.645 L129.746,15.101 L129.746,15.101 Z M94.251,39.58 L108.774,29.568 C109.718,28.887 111.553,27.314 112.234,25.113 L114.698,17.407 C115.065,16.097 115.852,15.415 116.533,14.891 L115.223,15.573 L109.561,18.77 C107.306,20.029 106.153,21.915 105.629,23.593 L103.531,30.406 C102.64,33.289 97.083,34.548 97.974,31.612 L99.547,26.371 C100.176,24.694 100.91,23.54 101.696,23.016 L88.17,30.512 C86.492,34.024 89.899,41.414 94.251,39.58 L94.251,39.58 Z" id="Fill-15" fill="#2EAAE1" sketch:type="MSShapeGroup"></path>
            <path d="M120.099,16.674 L119.784,17.67 L127.281,13.161 L127.597,12.323 L128.225,10.331 C128.592,9.177 129.588,7.867 130.69,7.238 L128.855,8.235 L124.136,10.75 C121.987,11.904 121.2,13.056 120.675,14.734 L120.099,16.674 L120.099,16.674 Z M140.18,4.512 L144.06,2.521 L141.543,1.892 C141.228,1.839 140.913,1.681 140.546,1.892 L135.985,4.355 C134.307,5.246 133.468,6.976 133.259,7.553 L132.734,9.282 L132.472,10.121 L138.869,6.295 L139.026,5.613 C139.131,5.246 139.55,4.88 140.18,4.512 L140.18,4.512 Z M92.783,39.894 C91.788,38.584 90.948,36.382 92.102,34.18 L98.289,30.459 L98.708,29.149 L99.547,26.371 C100.176,24.694 100.91,23.54 101.696,23.016 L88.17,30.512 C85.81,35.439 90.057,39.894 92.783,39.894 L92.783,39.894 Z M113.755,20.395 L114.698,17.407 C115.065,16.097 115.852,15.415 116.533,14.891 L115.223,15.573 L109.561,18.77 C107.306,20.029 106.153,21.915 105.629,23.593 L105.052,25.427 L104.685,26.633 L113.388,21.495 L113.755,20.395 L113.755,20.395 Z" id="Fill-16" fill="#FFFFFF" sketch:type="MSShapeGroup"></path>
            <path d="M350.419,42.777 C350.419,45.188 349.633,47.128 348.061,48.491 C346.539,49.906 344.651,50.588 342.556,50.588 C340.406,50.588 338.57,49.906 336.998,48.491 C335.425,47.128 334.639,45.188 334.639,42.777 C334.639,40.314 335.425,38.426 336.998,37.011 C338.57,35.649 340.406,34.967 342.556,34.967 C344.651,34.967 346.539,35.649 348.061,37.011 C349.633,38.426 350.419,40.314 350.419,42.777" id="Fill-17" fill="#2EAAE1" sketch:type="MSShapeGroup"></path>
            <path d="M335.95,55.725 L349.214,55.725 L349.214,102.428 L335.95,102.428 L335.95,55.725 Z" id="Fill-18" fill="#10476F" sketch:type="MSShapeGroup"></path>
            <path d="M202.045,66.575 C200.84,66.26 199.372,65.946 197.746,65.632 C196.121,65.265 194.339,65.107 192.503,65.107 C191.612,65.107 190.616,65.212 189.41,65.369 C188.257,65.526 187.366,65.684 186.736,65.842 L186.736,102.428 L173.157,102.428 L173.157,57.14 C175.622,56.249 178.453,55.463 181.809,54.729 C185.111,53.943 188.781,53.575 192.818,53.575 C193.552,53.575 194.443,53.627 195.492,53.68 C196.488,53.785 197.537,53.89 198.585,54.048 C199.634,54.204 200.63,54.414 201.678,54.623 C202.728,54.834 203.566,55.095 204.3,55.409 L202.045,66.575" id="Fill-19" fill="#10476F" sketch:type="MSShapeGroup"></path>
            <path d="M390.791,78.421 C390.791,74.228 389.95,70.925 388.274,68.515 C386.596,66.156 384.236,64.95 381.144,64.95 C377.998,64.95 375.639,66.156 373.909,68.515 C372.23,70.925 371.393,74.228 371.393,78.421 C371.393,82.613 372.23,85.917 373.909,88.38 C375.639,90.844 377.998,92.05 381.144,92.05 C384.236,92.05 386.596,90.844 388.274,88.38 C389.95,85.917 390.791,82.613 390.791,78.421 L390.791,78.421 Z M404.579,78.421 C404.579,82.143 404.055,85.602 402.954,88.747 C401.853,91.84 400.28,94.513 398.234,96.768 C396.191,98.969 393.675,100.646 390.791,101.905 C387.907,103.111 384.708,103.688 381.144,103.688 C377.577,103.688 374.38,103.111 371.496,101.905 C368.612,100.646 366.149,98.969 364.104,96.768 C362.059,94.513 360.434,91.84 359.28,88.747 C358.127,85.602 357.55,82.143 357.55,78.421 C357.55,74.647 358.127,71.24 359.332,68.148 C360.485,65.055 362.164,62.382 364.208,60.232 C366.305,58.031 368.822,56.3 371.706,55.095 C374.59,53.89 377.734,53.313 381.144,53.313 C384.552,53.313 387.749,53.89 390.633,55.095 C393.517,56.3 395.981,58.031 398.025,60.232 C400.123,62.382 401.695,65.055 402.849,68.148 C404.002,71.24 404.579,74.647 404.579,78.421 L404.579,78.421 Z" id="Fill-20" fill="#10476F" sketch:type="MSShapeGroup"></path>
            <path d="M149.669,38.794 C153.811,35.334 158.739,34.967 163.248,34.967 L163.248,100.909 C162.042,101.223 160.627,101.59 159.053,101.905 C157.48,102.272 155.803,102.533 154.073,102.795 C152.343,103.059 150.612,103.214 148.83,103.372 C146.995,103.53 145.318,103.633 143.692,103.633 C139.708,103.633 136.194,103.059 133.101,101.905 C130.008,100.751 127.387,99.074 125.29,96.926 C123.14,94.776 121.515,92.154 120.414,89.115 C119.313,86.023 118.736,82.613 118.736,78.788 C118.736,74.91 119.208,71.398 120.204,68.252 C121.147,65.16 122.563,62.487 124.398,60.285 C126.181,58.136 128.435,56.458 131.056,55.305 C133.678,54.152 136.719,53.575 140.127,53.575 C142.015,53.575 143.692,53.733 145.16,54.099 C146.681,54.466 148.148,54.991 149.669,55.672 L149.669,38.794 L149.669,38.794 Z M132.577,78.159 C132.577,82.301 133.521,85.707 135.408,88.224 C137.243,90.792 140.074,92.05 143.744,92.05 C144.951,92.05 146.104,91.998 147.153,91.945 C148.148,91.84 148.988,91.735 149.669,91.579 L149.669,66.942 C148.83,66.417 147.729,65.946 146.366,65.579 C145.002,65.212 143.587,65.055 142.224,65.055 C135.775,65.055 132.577,69.406 132.577,78.159 L132.577,78.159 Z" id="Fill-21" fill="#10476F" sketch:type="MSShapeGroup"></path>
            <path d="M240.161,73.651 C240.056,72.551 239.9,71.398 239.533,70.297 C239.218,69.195 238.692,68.252 238.012,67.413 C237.277,66.575 236.439,65.842 235.338,65.317 C234.29,64.74 232.979,64.478 231.406,64.478 C229.886,64.478 228.574,64.74 227.473,65.265 C226.373,65.789 225.48,66.47 224.746,67.308 C224.014,68.148 223.489,69.143 223.07,70.244 C222.703,71.398 222.388,72.551 222.229,73.651 L240.161,73.651 L240.161,73.651 Z M208.284,78.84 C208.284,74.595 208.914,70.925 210.224,67.728 C211.535,64.53 213.265,61.857 215.362,59.76 C217.512,57.612 219.925,56.039 222.703,54.939 C225.48,53.838 228.313,53.313 231.196,53.313 C238.012,53.313 243.36,55.358 247.344,59.551 C251.275,63.692 253.216,69.772 253.216,77.844 C253.216,78.63 253.216,79.523 253.164,80.466 C253.111,81.408 253.006,82.248 252.954,82.982 L222.229,82.982 C222.493,85.759 223.805,87.961 226.109,89.587 C228.417,91.264 231.51,92.05 235.39,92.05 C237.906,92.05 240.319,91.84 242.73,91.369 C245.143,90.897 247.083,90.373 248.604,89.691 L250.438,100.699 C249.703,101.065 248.707,101.432 247.502,101.799 C246.296,102.166 244.934,102.482 243.465,102.743 C241.996,103.005 240.371,103.268 238.692,103.424 C236.963,103.633 235.286,103.688 233.607,103.688 C229.257,103.688 225.535,103.059 222.336,101.799 C219.137,100.542 216.516,98.76 214.419,96.559 C212.321,94.357 210.801,91.735 209.805,88.695 C208.757,85.656 208.284,82.404 208.284,78.84 L208.284,78.84 Z" id="Fill-22" fill="#10476F" sketch:type="MSShapeGroup"></path>
            <path d="M287.033,77.058 C287.033,72.655 286.508,69.563 285.354,67.78 C284.255,65.946 282.315,65.055 279.589,65.055 C278.749,65.055 277.858,65.055 276.967,65.16 C276.022,65.265 275.185,65.369 274.292,65.474 L274.292,102.428 L260.766,102.428 L260.766,56.196 C261.919,55.882 263.23,55.567 264.803,55.253 C266.375,54.939 268.002,54.623 269.732,54.362 C271.462,54.048 273.244,53.838 275.026,53.68 C276.862,53.523 278.645,53.47 280.427,53.47 C283.888,53.47 286.666,53.89 288.815,54.781 C290.965,55.672 292.749,56.721 294.164,57.926 C296.104,56.511 298.305,55.463 300.821,54.676 C303.39,53.89 305.697,53.47 307.795,53.47 C311.622,53.47 314.768,53.994 317.232,55.043 C319.697,56.144 321.637,57.612 323.104,59.551 C324.572,61.491 325.568,63.797 326.093,66.47 C326.67,69.143 326.932,72.132 326.932,75.381 L326.932,102.428 L313.353,102.428 L313.353,77.058 C313.353,72.655 312.775,69.563 311.674,67.78 C310.574,65.946 308.635,65.055 305.906,65.055 C305.174,65.055 304.178,65.212 302.867,65.579 C301.556,65.946 300.454,66.417 299.616,66.942 C300.035,68.357 300.299,69.825 300.454,71.345 C300.56,72.916 300.612,74.543 300.612,76.325 L300.612,102.428 L287.033,102.428 L287.033,77.058" id="Fill-23" fill="#10476F" sketch:type="MSShapeGroup"></path>
        </g>
    </g>
</svg>
